<?xml version="1.0" encoding="UTF-8"?>
<svg width="800px" height="600px" viewBox="0 0 800 600" version="1.1" xmlns="http://www.w3.org/2000/svg" xmlns:xlink="http://www.w3.org/1999/xlink">
    <title>Restaurante</title>
    <defs>
        <linearGradient x1="50%" y1="0%" x2="50%" y2="100%" id="gradient">
            <stop stop-color="#F3F4F6" offset="0%"></stop>
            <stop stop-color="#E5E7EB" offset="100%"></stop>
        </linearGradient>
    </defs>
    <rect fill="url(#gradient)" width="800" height="600"></rect>
    <g transform="translate(200, 150)">
        <rect fill="#F59E0B" x="0" y="0" width="400" height="300" rx="20" ry="20"></rect>
        <rect fill="#D97706" x="50" y="250" width="300" height="30" rx="5" ry="5"></rect>
        <rect fill="#FDE68A" x="150" y="150" width="150" height="100" rx="10" ry="10"></rect>
        <rect fill="#FBBF24" x="175" y="170" width="30" height="60" rx="5" ry="5"></rect>
        <rect fill="#FBBF24" x="250" y="170" width="30" height="60" rx="5" ry="5"></rect>
        <circle fill="#F3F4F6" cx="300" cy="100" r="50"></circle>
        <path d="M300,50 L310,80 L340,80 L320,100 L330,130 L300,110 L270,130 L280,100 L260,80 L290,80 Z" fill="#F59E0B"></path>
        <text x="200" y="400" font-family="Arial" font-size="24" fill="#6B7280" text-anchor="middle">Imagen no disponible</text>
    </g>
</svg>
