<svg width="16" height="16" viewBox="0 0 16 16" fill="none" xmlns="http://www.w3.org/2000/svg">
  <path d="M8 0C3.58 0 0 3.58 0 8C0 12.42 3.58 16 8 16C12.42 16 16 12.42 16 8C16 3.58 12.42 0 8 0ZM8 14.5C4.41 14.5 1.5 11.59 1.5 8C1.5 4.41 4.41 1.5 8 1.5C11.59 1.5 14.5 4.41 14.5 8C14.5 11.59 11.59 14.5 8 14.5Z" fill="#646CFF"/>
  <path d="M8 3.5C5.52 3.5 3.5 5.52 3.5 8C3.5 10.48 5.52 12.5 8 12.5C10.48 12.5 12.5 10.48 12.5 8C12.5 5.52 10.48 3.5 8 3.5ZM8 11C6.62 11 5.5 9.88 5.5 8.5C5.5 7.12 6.62 6 8 6C9.38 6 10.5 7.12 10.5 8.5C10.5 9.88 9.38 11 8 11Z" fill="#646CFF"/>
</svg>
