<svg xmlns="http://www.w3.org/2000/svg" xmlns:xlink="http://www.w3.org/1999/xlink" width="500" zoomAndPan="magnify" viewBox="0 0 375 60" height="80" preserveAspectRatio="xMidYMid meet" version="1.2"><defs><clipPath id="10c863a693"><path d="M 4 6 L 51 6 L 51 52 L 4 52 Z M 4 6 "/></clipPath><clipPath id="9d2a320ec6"><path d="M 0.25 12.964844 L 45.933594 -0.0351562 L 57.609375 41 L 11.929688 54 Z M 0.25 12.964844 "/></clipPath><clipPath id="7911dd37cf"><path d="M 23.03125 6.484375 L 32.871094 20.625 L 50.273438 15.671875 L 38.953125 29.367188 L 48.789062 43.507812 L 31.953125 37.828125 L 20.632812 51.523438 L 21.546875 34.320312 L 4.710938 28.640625 L 22.117188 23.6875 Z M 23.03125 6.484375 "/></clipPath><clipPath id="062870e642"><path d="M 4 6 L 51 6 L 51 52 L 4 52 Z M 4 6 "/></clipPath><clipPath id="45a823ef78"><path d="M 0.25 12.964844 L 45.695312 0.03125 L 57.398438 41.148438 L 11.953125 54.082031 Z M 0.25 12.964844 "/></clipPath><clipPath id="6e0ef46130"><path d="M 0.253906 12.964844 L 46.109375 -0.0859375 L 57.8125 41.027344 L 11.953125 54.078125 Z M 0.253906 12.964844 "/></clipPath><clipPath id="70e039cb8f"><path d="M 22.972656 6.5 L 32.785156 20.605469 L 50.144531 15.664062 L 38.851562 29.324219 L 48.664062 43.429688 L 31.871094 37.765625 L 20.578125 51.421875 L 21.492188 34.261719 L 4.703125 28.597656 L 22.058594 23.65625 Z M 22.972656 6.5 "/></clipPath></defs><g id="baf22107e3"><g clip-rule="nonzero" clip-path="url(#10c863a693)"><g clip-rule="nonzero" clip-path="url(#9d2a320ec6)"><g clip-rule="nonzero" clip-path="url(#7911dd37cf)"><path style=" stroke:none;fill-rule:nonzero;fill:#ffffff;fill-opacity:1;" d="M 0.25 12.964844 L 45.773438 0.0117188 L 57.449219 41.042969 L 11.929688 54 Z M 0.25 12.964844 "/></g></g></g><g clip-rule="nonzero" clip-path="url(#062870e642)"><g clip-rule="nonzero" clip-path="url(#45a823ef78)"><g clip-rule="nonzero" clip-path="url(#6e0ef46130)"><g clip-rule="nonzero" clip-path="url(#70e039cb8f)"><path style="fill:none;stroke-width:6;stroke-linecap:butt;stroke-linejoin:miter;stroke:#ff3131;stroke-opacity:1;stroke-miterlimit:4;" d="M 31.574211 0.000167829 L 39.028205 21.724178 L 63.153186 21.722942 L 43.637131 35.15247 L 51.091124 56.876481 L 31.574599 43.450669 L 12.059973 56.875176 L 19.513578 35.148685 L 0.0020752 21.724302 L 24.122035 21.721636 Z M 31.574211 0.000167829 " transform="matrix(0.719571,-0.204788,0.204788,0.719571,0.252747,12.965911)"/></g></g></g></g><g style="fill:#ffffff;fill-opacity:1;"><g transform="translate(49.104351, 47.249999)"><path style="stroke:none" d="M 24.046875 -9.265625 L 24.90625 -9.890625 C 26 -10.535156 26.773438 -10.859375 27.234375 -10.859375 C 28.234375 -10.859375 29.3125 -9.957031 30.46875 -8.15625 C 31.175781 -7.03125 31.53125 -6.128906 31.53125 -5.453125 C 31.53125 -4.773438 31.3125 -4.210938 30.875 -3.765625 C 30.4375 -3.316406 29.925781 -2.914062 29.34375 -2.5625 C 28.769531 -2.207031 28.21875 -1.867188 27.6875 -1.546875 C 27.15625 -1.222656 26.066406 -0.800781 24.421875 -0.28125 C 22.785156 0.226562 21.203125 0.484375 19.671875 0.484375 C 18.140625 0.484375 16.59375 0.285156 15.03125 -0.109375 C 13.476562 -0.515625 11.867188 -1.191406 10.203125 -2.140625 C 8.546875 -3.097656 7.054688 -4.257812 5.734375 -5.625 C 4.421875 -6.988281 3.335938 -8.738281 2.484375 -10.875 C 1.628906 -13.019531 1.203125 -15.347656 1.203125 -17.859375 C 1.203125 -20.367188 1.617188 -22.644531 2.453125 -24.6875 C 3.296875 -26.738281 4.367188 -28.429688 5.671875 -29.765625 C 6.972656 -31.097656 8.460938 -32.21875 10.140625 -33.125 C 13.296875 -34.863281 16.46875 -35.734375 19.65625 -35.734375 C 21.164062 -35.734375 22.703125 -35.5 24.265625 -35.03125 C 25.828125 -34.5625 27.007812 -34.085938 27.8125 -33.609375 L 28.96875 -32.921875 C 29.550781 -32.566406 30.003906 -32.28125 30.328125 -32.0625 C 31.160156 -31.382812 31.578125 -30.617188 31.578125 -29.765625 C 31.578125 -28.910156 31.238281 -28.015625 30.5625 -27.078125 C 29.300781 -25.347656 28.175781 -24.484375 27.1875 -24.484375 C 26.601562 -24.484375 25.78125 -24.835938 24.71875 -25.546875 C 23.363281 -26.640625 21.5625 -27.1875 19.3125 -27.1875 C 17.21875 -27.1875 15.15625 -26.460938 13.125 -25.015625 C 12.164062 -24.304688 11.363281 -23.304688 10.71875 -22.015625 C 10.070312 -20.722656 9.75 -19.265625 9.75 -17.640625 C 9.75 -16.015625 10.070312 -14.554688 10.71875 -13.265625 C 11.363281 -11.984375 12.1875 -10.972656 13.1875 -10.234375 C 15.144531 -8.816406 17.1875 -8.109375 19.3125 -8.109375 C 20.3125 -8.109375 21.253906 -8.238281 22.140625 -8.5 C 23.023438 -8.757812 23.660156 -9.015625 24.046875 -9.265625 Z M 24.046875 -9.265625 "/></g></g><g style="fill:#ffffff;fill-opacity:1;"><g transform="translate(84.438154, 47.249999)"><path style="stroke:none" d="M 23.796875 -34.078125 C 24.054688 -34.566406 24.492188 -34.90625 25.109375 -35.09375 C 25.722656 -35.289062 26.492188 -35.390625 27.421875 -35.390625 C 28.359375 -35.390625 29.097656 -35.304688 29.640625 -35.140625 C 30.191406 -34.984375 30.609375 -34.789062 30.890625 -34.5625 C 31.179688 -34.34375 31.410156 -34.023438 31.578125 -33.609375 C 31.734375 -33.054688 31.8125 -32.21875 31.8125 -31.09375 L 31.8125 -4.296875 C 31.8125 -3.554688 31.785156 -3 31.734375 -2.625 C 31.691406 -2.257812 31.539062 -1.835938 31.28125 -1.359375 C 30.832031 -0.484375 29.578125 -0.046875 27.515625 -0.046875 C 25.265625 -0.046875 23.945312 -0.640625 23.5625 -1.828125 C 23.363281 -2.378906 23.265625 -3.21875 23.265625 -4.34375 L 23.265625 -14.140625 L 10.484375 -14.140625 L 10.484375 -4.296875 C 10.484375 -3.554688 10.457031 -3 10.40625 -2.625 C 10.351562 -2.257812 10.203125 -1.835938 9.953125 -1.359375 C 9.492188 -0.484375 8.238281 -0.046875 6.1875 -0.046875 C 3.925781 -0.046875 2.601562 -0.640625 2.21875 -1.828125 C 2.03125 -2.378906 1.9375 -3.21875 1.9375 -4.34375 L 1.9375 -31.140625 C 1.9375 -31.878906 1.957031 -32.429688 2 -32.796875 C 2.050781 -33.171875 2.207031 -33.601562 2.46875 -34.09375 C 2.914062 -34.957031 4.171875 -35.390625 6.234375 -35.390625 C 8.484375 -35.390625 9.816406 -34.796875 10.234375 -33.609375 C 10.398438 -33.054688 10.484375 -32.21875 10.484375 -31.09375 L 10.484375 -21.25 L 23.265625 -21.25 L 23.265625 -31.140625 C 23.265625 -31.878906 23.289062 -32.429688 23.34375 -32.796875 C 23.394531 -33.171875 23.546875 -33.597656 23.796875 -34.078125 Z M 23.796875 -34.078125 "/></g></g><g style="fill:#ffffff;fill-opacity:1;"><g transform="translate(120.737347, 47.249999)"><path style="stroke:none" d="M 1.9375 -31.140625 C 1.9375 -31.878906 1.957031 -32.429688 2 -32.796875 C 2.050781 -33.171875 2.207031 -33.601562 2.46875 -34.09375 C 2.914062 -34.957031 4.171875 -35.390625 6.234375 -35.390625 C 8.484375 -35.390625 9.816406 -34.796875 10.234375 -33.609375 C 10.398438 -33.054688 10.484375 -32.21875 10.484375 -31.09375 L 10.484375 -4.25 C 10.484375 -3.476562 10.457031 -2.914062 10.40625 -2.5625 C 10.351562 -2.207031 10.203125 -1.785156 9.953125 -1.296875 C 9.492188 -0.429688 8.238281 0 6.1875 0 C 3.925781 0 2.601562 -0.609375 2.21875 -1.828125 C 2.03125 -2.347656 1.9375 -3.171875 1.9375 -4.296875 Z M 1.9375 -31.140625 "/></g></g><g style="fill:#ffffff;fill-opacity:1;"><g transform="translate(135.701389, 47.249999)"><path style="stroke:none" d="M 10.484375 -7.140625 L 23.609375 -7.140625 C 24.671875 -7.140625 25.441406 -7.019531 25.921875 -6.78125 C 26.410156 -6.539062 26.734375 -6.160156 26.890625 -5.640625 C 27.054688 -5.128906 27.140625 -4.445312 27.140625 -3.59375 C 27.140625 -2.738281 27.054688 -2.050781 26.890625 -1.53125 C 26.734375 -1.019531 26.460938 -0.671875 26.078125 -0.484375 C 25.460938 -0.160156 24.625 0 23.5625 0 L 6.1875 0 C 3.925781 0 2.601562 -0.609375 2.21875 -1.828125 C 2.03125 -2.347656 1.9375 -3.171875 1.9375 -4.296875 L 1.9375 -31.140625 C 1.9375 -31.878906 1.957031 -32.429688 2 -32.796875 C 2.050781 -33.171875 2.207031 -33.601562 2.46875 -34.09375 C 2.914062 -34.957031 4.171875 -35.390625 6.234375 -35.390625 C 8.484375 -35.390625 9.816406 -34.796875 10.234375 -33.609375 C 10.398438 -33.054688 10.484375 -32.21875 10.484375 -31.09375 Z M 10.484375 -7.140625 "/></g></g><g style="fill:#ffffff;fill-opacity:1;"><g transform="translate(166.594382, 47.249999)"><path style="stroke:none" d="M 10.484375 -8.546875 L 25.34375 -8.546875 C 26.082031 -8.546875 26.632812 -8.519531 27 -8.46875 C 27.375 -8.425781 27.804688 -8.273438 28.296875 -8.015625 C 29.160156 -7.566406 29.59375 -6.3125 29.59375 -4.25 C 29.59375 -2 29 -0.679688 27.8125 -0.296875 C 27.257812 -0.0976562 26.421875 0 25.296875 0 L 6.1875 0 C 3.925781 0 2.601562 -0.609375 2.21875 -1.828125 C 2.03125 -2.347656 1.9375 -3.171875 1.9375 -4.296875 L 1.9375 -31.140625 C 1.9375 -32.785156 2.238281 -33.90625 2.84375 -34.5 C 3.457031 -35.09375 4.617188 -35.390625 6.328125 -35.390625 L 25.34375 -35.390625 C 26.082031 -35.390625 26.632812 -35.363281 27 -35.3125 C 27.375 -35.269531 27.804688 -35.117188 28.296875 -34.859375 C 29.160156 -34.410156 29.59375 -33.15625 29.59375 -31.09375 C 29.59375 -28.84375 29 -27.523438 27.8125 -27.140625 C 27.257812 -26.941406 26.421875 -26.84375 25.296875 -26.84375 L 10.484375 -26.84375 L 10.484375 -21.96875 L 20.03125 -21.96875 C 20.769531 -21.96875 21.320312 -21.941406 21.6875 -21.890625 C 22.0625 -21.847656 22.492188 -21.695312 22.984375 -21.4375 C 23.847656 -20.988281 24.28125 -19.734375 24.28125 -17.671875 C 24.28125 -15.421875 23.671875 -14.101562 22.453125 -13.71875 C 21.898438 -13.519531 21.0625 -13.421875 19.9375 -13.421875 L 10.484375 -13.421875 Z M 10.484375 -8.546875 "/></g></g><g style="fill:#ffffff;fill-opacity:1;"><g transform="translate(199.212193, 46.029147)"><path style="stroke:none" d="M 15.640625 -23 L 24.75 -4.15625 C 25.132812 -3.382812 25.328125 -2.8125 25.328125 -2.4375 C 25.328125 -1.625 24.671875 -0.890625 23.359375 -0.234375 C 22.597656 0.148438 22 0.34375 21.5625 0.34375 C 21.125 0.34375 20.765625 0.238281 20.484375 0.03125 C 20.203125 -0.164062 20 -0.378906 19.875 -0.609375 C 19.75 -0.835938 19.570312 -1.175781 19.34375 -1.625 L 17.59375 -5.265625 L 8.234375 -5.265625 L 6.484375 -1.625 C 6.253906 -1.175781 6.078125 -0.847656 5.953125 -0.640625 C 5.835938 -0.441406 5.640625 -0.234375 5.359375 -0.015625 C 5.078125 0.191406 4.710938 0.296875 4.265625 0.296875 C 3.828125 0.296875 3.226562 0.109375 2.46875 -0.265625 C 1.15625 -0.898438 0.5 -1.625 0.5 -2.4375 C 0.5 -2.8125 0.691406 -3.382812 1.078125 -4.15625 L 10.203125 -23.03125 C 10.441406 -23.550781 10.816406 -23.96875 11.328125 -24.28125 C 11.835938 -24.59375 12.375 -24.75 12.9375 -24.75 C 14.144531 -24.75 15.046875 -24.164062 15.640625 -23 Z M 12.90625 -14.890625 L 10.671875 -10.265625 L 15.15625 -10.265625 Z M 12.90625 -14.890625 "/></g></g><g style="fill:#ffffff;fill-opacity:1;"><g transform="translate(226.826971, 46.029147)"><path style="stroke:none" d="M 0.84375 -8.875 C 0.84375 -11.582031 1.785156 -13.8125 3.671875 -15.5625 C 5.566406 -17.320312 7.726562 -18.203125 10.15625 -18.203125 C 12.59375 -18.203125 14.742188 -17.328125 16.609375 -15.578125 C 18.484375 -13.835938 19.421875 -11.617188 19.421875 -8.921875 C 19.421875 -7.046875 18.9375 -5.378906 17.96875 -3.921875 C 17 -2.472656 15.820312 -1.40625 14.4375 -0.71875 C 13.050781 -0.0390625 11.613281 0.296875 10.125 0.296875 C 8.644531 0.296875 7.207031 -0.0664062 5.8125 -0.796875 C 4.414062 -1.523438 3.238281 -2.601562 2.28125 -4.03125 C 1.320312 -5.457031 0.84375 -7.070312 0.84375 -8.875 Z M 7.90625 -6.46875 C 8.625 -5.914062 9.351562 -5.640625 10.09375 -5.640625 C 10.832031 -5.640625 11.570312 -5.921875 12.3125 -6.484375 C 13.0625 -7.046875 13.4375 -7.878906 13.4375 -8.984375 C 13.4375 -10.085938 13.085938 -10.90625 12.390625 -11.4375 C 11.691406 -11.976562 10.9375 -12.25 10.125 -12.25 C 9.320312 -12.25 8.570312 -11.96875 7.875 -11.40625 C 7.175781 -10.84375 6.828125 -10.015625 6.828125 -8.921875 C 6.828125 -7.835938 7.1875 -7.019531 7.90625 -6.46875 Z M 7.90625 -6.46875 "/></g></g><g style="fill:#ffffff;fill-opacity:1;"><g transform="translate(243.212553, 48.602898)"><path style="stroke:none" d="M 34.234375 -34.859375 C 36.128906 -33.921875 37.078125 -32.890625 37.078125 -31.765625 C 37.078125 -31.253906 36.835938 -30.484375 36.359375 -29.453125 L 23.03125 -2.40625 C 22.675781 -1.707031 22.132812 -1.140625 21.40625 -0.703125 C 20.6875 -0.265625 19.941406 -0.046875 19.171875 -0.046875 L 18.6875 -0.046875 C 17.882812 -0.046875 17.117188 -0.265625 16.390625 -0.703125 C 15.671875 -1.140625 15.132812 -1.707031 14.78125 -2.40625 L 1.453125 -29.453125 C 0.960938 -30.484375 0.71875 -31.253906 0.71875 -31.765625 C 0.71875 -32.890625 1.671875 -33.921875 3.578125 -34.859375 C 4.640625 -35.410156 5.453125 -35.6875 6.015625 -35.6875 C 6.578125 -35.6875 7 -35.617188 7.28125 -35.484375 C 7.570312 -35.359375 7.847656 -35.132812 8.109375 -34.8125 C 8.398438 -34.425781 8.664062 -34 8.90625 -33.53125 C 9.144531 -33.0625 9.765625 -31.722656 10.765625 -29.515625 C 11.765625 -27.316406 12.832031 -24.976562 13.96875 -22.5 C 15.113281 -20.019531 16.191406 -17.675781 17.203125 -15.46875 C 18.222656 -13.269531 18.796875 -12.039062 18.921875 -11.78125 L 28.578125 -32.921875 C 28.835938 -33.535156 29.066406 -34.019531 29.265625 -34.375 C 29.835938 -35.25 30.539062 -35.6875 31.375 -35.6875 C 32.21875 -35.6875 33.171875 -35.410156 34.234375 -34.859375 Z M 34.234375 -34.859375 "/></g></g><g style="fill:#ffffff;fill-opacity:1;"><g transform="translate(283.566388, 48.602898)"><path style="stroke:none" d="M 1.9375 -21.203125 C 1.9375 -21.941406 1.957031 -22.492188 2 -22.859375 C 2.050781 -23.234375 2.1875 -23.660156 2.40625 -24.140625 C 2.863281 -24.972656 4.125 -25.390625 6.1875 -25.390625 C 7.726562 -25.390625 8.820312 -25.117188 9.46875 -24.578125 C 10.007812 -24.128906 10.296875 -23.4375 10.328125 -22.5 C 10.359375 -22.175781 10.375 -21.707031 10.375 -21.09375 L 10.375 -4.203125 C 10.375 -3.460938 10.347656 -2.90625 10.296875 -2.53125 C 10.253906 -2.164062 10.101562 -1.738281 9.84375 -1.25 C 9.425781 -0.414062 8.1875 0 6.125 0 C 4.101562 0 2.863281 -0.429688 2.40625 -1.296875 C 2.1875 -1.785156 2.050781 -2.207031 2 -2.5625 C 1.957031 -2.914062 1.9375 -3.476562 1.9375 -4.25 Z M 9.875 -30.15625 C 9.632812 -29.6875 9.207031 -29.351562 8.59375 -29.15625 C 7.976562 -28.96875 7.164062 -28.875 6.15625 -28.875 C 5.144531 -28.875 4.332031 -28.96875 3.71875 -29.15625 C 3.101562 -29.351562 2.675781 -29.691406 2.4375 -30.171875 C 2.195312 -30.660156 2.050781 -31.085938 2 -31.453125 C 1.957031 -31.828125 1.9375 -32.382812 1.9375 -33.125 C 1.9375 -33.863281 1.957031 -34.414062 2 -34.78125 C 2.050781 -35.15625 2.1875 -35.566406 2.40625 -36.015625 C 2.863281 -36.890625 4.125 -37.328125 6.1875 -37.328125 C 8.207031 -37.328125 9.425781 -36.890625 9.84375 -36.015625 C 10.101562 -35.535156 10.253906 -35.109375 10.296875 -34.734375 C 10.347656 -34.367188 10.375 -33.816406 10.375 -33.078125 C 10.375 -32.335938 10.347656 -31.78125 10.296875 -31.40625 C 10.253906 -31.039062 10.113281 -30.625 9.875 -30.15625 Z M 9.875 -30.15625 "/></g></g><g style="fill:#ffffff;fill-opacity:1;"><g transform="translate(298.433888, 48.602898)"><path style="stroke:none" d="M 27.5625 -24.859375 C 29.238281 -23.867188 30.078125 -22.804688 30.078125 -21.671875 C 30.078125 -21.035156 29.753906 -20.148438 29.109375 -19.015625 L 19.125 -1.890625 C 18.800781 -1.335938 18.285156 -0.84375 17.578125 -0.40625 C 16.867188 0.0195312 16.164062 0.234375 15.46875 0.234375 C 14.78125 0.234375 14.117188 0.0664062 13.484375 -0.265625 C 12.859375 -0.597656 12.421875 -0.941406 12.171875 -1.296875 L 11.734375 -1.828125 L 1.6875 -19.015625 C 1.039062 -20.078125 0.71875 -20.945312 0.71875 -21.625 C 0.71875 -22.789062 1.554688 -23.867188 3.234375 -24.859375 C 4.453125 -25.566406 5.414062 -25.921875 6.125 -25.921875 C 6.832031 -25.921875 7.390625 -25.703125 7.796875 -25.265625 C 8.203125 -24.835938 8.628906 -24.1875 9.078125 -23.3125 L 15.40625 -11.15625 L 21.71875 -23.3125 C 22.070312 -23.925781 22.335938 -24.367188 22.515625 -24.640625 C 22.691406 -24.921875 22.972656 -25.195312 23.359375 -25.46875 C 23.753906 -25.738281 24.269531 -25.875 24.90625 -25.875 C 25.550781 -25.875 26.4375 -25.535156 27.5625 -24.859375 Z M 27.5625 -24.859375 "/></g></g><g style="fill:#ffffff;fill-opacity:1;"><g transform="translate(331.78863, 48.602898)"><path style="stroke:none" d="M 1.203125 -12.703125 C 1.203125 -16.554688 2.550781 -19.738281 5.25 -22.25 C 7.957031 -24.769531 11.050781 -26.03125 14.53125 -26.03125 C 18.007812 -26.03125 21.082031 -24.78125 23.75 -22.28125 C 26.425781 -19.789062 27.765625 -16.613281 27.765625 -12.75 C 27.765625 -10.070312 27.070312 -7.695312 25.6875 -5.625 C 24.300781 -3.550781 22.617188 -2.019531 20.640625 -1.03125 C 18.660156 -0.0507812 16.609375 0.4375 14.484375 0.4375 C 12.359375 0.4375 10.296875 -0.0820312 8.296875 -1.125 C 6.304688 -2.175781 4.625 -3.722656 3.25 -5.765625 C 1.882812 -7.804688 1.203125 -10.117188 1.203125 -12.703125 Z M 11.296875 -9.234375 C 12.328125 -8.453125 13.375 -8.0625 14.4375 -8.0625 C 15.5 -8.0625 16.5625 -8.460938 17.625 -9.265625 C 18.6875 -10.078125 19.21875 -11.269531 19.21875 -12.84375 C 19.21875 -14.414062 18.71875 -15.585938 17.71875 -16.359375 C 16.71875 -17.140625 15.640625 -17.53125 14.484375 -17.53125 C 13.328125 -17.53125 12.25 -17.125 11.25 -16.3125 C 10.25 -15.507812 9.75 -14.328125 9.75 -12.765625 C 9.75 -11.203125 10.265625 -10.023438 11.296875 -9.234375 Z M 11.296875 -9.234375 "/></g></g></g></svg>